<svg width="1544" height="1543" xmlns="http://www.w3.org/2000/svg" xmlns:xlink="http://www.w3.org/1999/xlink" xml:space="preserve" overflow="hidden"><defs><clipPath id="clip0"><rect x="1215" y="244" width="1544" height="1543"/></clipPath></defs><g clip-path="url(#clip0)" transform="translate(-1215 -244)"><g><g><g><path d="M1986.5 723.762C1860.9 723.762 1758.71 825.95 1758.71 951.555 1758.71 1077.16 1860.9 1179.35 1986.5 1179.35 2112.1 1179.35 2214.29 1077.16 2214.29 951.555 2214.29 825.95 2112.11 723.762 1986.5 723.762ZM1986.5 1083.44C1913.78 1083.44 1854.62 1024.27 1854.62 951.555 1854.62 878.836 1913.78 819.674 1986.5 819.674 2059.22 819.674 2118.38 878.836 2118.38 951.555 2118.38 1024.27 2059.22 1083.44 1986.5 1083.44Z"/><path d="M1986.5 460C1715.46 460 1494.95 680.513 1494.95 951.555L1494.95 965.143C1494.95 1102.22 1573.54 1261.96 1728.54 1439.92 1840.91 1568.93 1951.7 1658.88 1956.36 1662.65L1986.5 1687 2016.64 1662.65C2021.3 1658.88 2132.1 1568.93 2244.46 1439.92 2399.46 1261.96 2478.05 1102.22 2478.05 965.145L2478.05 951.557C2478.05 680.513 2257.54 460 1986.5 460ZM2382.14 965.145C2382.14 1196.8 2083.66 1477.23 1986.5 1562.35 1889.32 1477.2 1590.86 1196.78 1590.86 965.145L1590.86 951.557C1590.86 733.401 1768.34 555.914 1986.5 555.914 2204.66 555.914 2382.14 733.401 2382.14 951.557L2382.14 965.145Z"/></g></g></g><path d="M1215 1015.5C1215 589.412 1560.41 244 1986.5 244 2412.59 244 2758 589.412 2758 1015.5 2758 1441.59 2412.59 1787 1986.5 1787 1560.41 1787 1215 1441.59 1215 1015.5ZM1291.42 1015.5C1291.42 1399.38 1602.62 1710.58 1986.5 1710.58 2370.38 1710.58 2681.57 1399.38 2681.57 1015.5 2681.57 631.62 2370.38 320.424 1986.5 320.424 1602.62 320.424 1291.42 631.62 1291.42 1015.5Z" fill="#7F7F7F" fill-rule="evenodd"/></g></svg>