<svg enable-background="new 0 0 32 32" height="32" viewBox="0 0 32 32" width="32" xmlns="http://www.w3.org/2000/svg"><g id="box"><path d="m0 0h32v32h-32z" fill="none"/></g><g id="_x31_"/><g id="_x32_"/><g id="_x33_"/><g id="_x34_"/><g id="_x35_"/><g id="_x36_"/><g id="_x37_"/><g id="_x38_"/><g id="_x39_"/><g id="_x31_0"/><g id="_x31_1"/><g id="_x31_2"/><g id="_x31_3"/><g id="_x31_4"/><g id="_x31_5"/><g id="_x31_6"/><g id="_x31_7"/><g id="_x31_8"/><g id="_x31_9"/><g id="_x32_0"/><g id="_x32_1"/><g id="_x32_2"><g><path d="m13.916 24.777c-1.756 0-3.185-1.46-3.185-3.254 0-.553.448-1 1-1s1 .447 1 1c0 .691.531 1.254 1.185 1.254s1.185-.563 1.185-1.254v-11.27c-.001-.69-.532-1.253-1.185-1.253s-1.185.563-1.185 1.254c0 .553-.448 1-1 1s-1-.447-1-1c0-1.794 1.429-3.254 3.185-3.254s3.184 1.46 3.184 3.254v11.27c0 1.793-1.429 3.253-3.184 3.253z"/></g><g><path d="m11.731 22.523c-2.057 0-3.731-1.712-3.731-3.817 0-1.903 1.389-3.529 3.23-3.782.545-.083 1.051.308 1.127.854.075.547-.308 1.051-.854 1.126-.857.118-1.503.893-1.503 1.802 0 1.002.776 1.817 1.731 1.817.552 0 1 .447 1 1s-.448 1-1 1z"/></g><g><path d="m11.368 16.864c-.045 0-.091-.003-.138-.01-1.841-.252-3.23-1.878-3.23-3.783 0-2.104 1.674-3.817 3.731-3.817.552 0 1 .447 1 1s-.448 1-1 1c-.955 0-1.731.815-1.731 1.817 0 .91.646 1.685 1.503 1.803.547.075.93.579.854 1.126-.068.501-.497.864-.989.864z"/></g><g><path d="m18.285 24.777c-1.756 0-3.185-1.46-3.185-3.254v-11.27c0-1.793 1.429-3.253 3.185-3.253s3.185 1.46 3.185 3.254c0 .553-.448 1-1 1s-1-.447-1-1c-.001-.691-.532-1.254-1.185-1.254s-1.185.563-1.185 1.254v11.27c0 .691.531 1.254 1.185 1.254s1.185-.563 1.185-1.254c0-.553.448-1 1-1s1 .447 1 1c-.001 1.793-1.429 3.253-3.185 3.253z"/></g><g><path d="m20.469 22.523c-.552 0-1-.447-1-1s.448-1 1-1c.955 0 1.731-.815 1.731-1.817 0-.909-.646-1.684-1.503-1.802-.547-.075-.93-.579-.854-1.126.075-.547.579-.937 1.127-.854 1.842.253 3.23 1.879 3.23 3.782 0 2.105-1.674 3.817-3.731 3.817z"/></g><g><path d="m20.832 16.864c-.492 0-.92-.363-.989-.864-.075-.547.308-1.051.854-1.126.857-.118 1.503-.893 1.503-1.803 0-1.002-.776-1.817-1.731-1.817-.552 0-1-.447-1-1s.448-1 1-1c2.057 0 3.731 1.713 3.731 3.817 0 1.904-1.389 3.53-3.23 3.783-.047.007-.093.01-.138.01z"/></g><g><path d="m16 31c-8.271 0-15-6.729-15-15s6.729-15 15-15 15 6.729 15 15-6.729 15-15 15zm0-28c-7.168 0-13 5.832-13 13s5.832 13 13 13 13-5.832 13-13-5.832-13-13-13z"/></g></g><g id="_x32_3"/><g id="_x32_4"/><g id="_x32_5"/></svg>