<?xml version="1.0" standalone="no"?>
<!DOCTYPE svg PUBLIC "-//W3C//DTD SVG 20010904//EN"
 "http://www.w3.org/TR/2001/REC-SVG-20010904/DTD/svg10.dtd">
<svg version="1.0" xmlns="http://www.w3.org/2000/svg"
 width="431.000000pt" height="431.000000pt" viewBox="0 0 431.000000 431.000000"
 preserveAspectRatio="xMidYMid meet">
<metadata>
Created by potrace 1.16, written by Peter Selinger 2001-2019
</metadata>
<g transform="translate(0.000000,431.000000) scale(0.100000,-0.100000)"
fill="#000000" stroke="none">
<path d="M1925 4289 c-604 -73 -1137 -379 -1494 -856 -456 -611 -553 -1411
-256 -2118 56 -135 96 -209 190 -350 594 -900 1766 -1220 2733 -745 439 215
776 553 993 993 355 724 269 1588 -222 2239 -83 109 -290 316 -409 407 -274
211 -611 355 -970 416 -115 20 -452 28 -565 14z m-18 -321 c-78 -42 -162 -135
-206 -228 -35 -74 -36 -77 -36 -200 0 -107 4 -133 24 -183 69 -173 241 -300
427 -314 282 -22 531 207 533 492 2 170 -100 348 -249 433 -65 38 -53 40 82
17 332 -58 660 -219 923 -452 277 -246 493 -617 575 -988 30 -138 28 -146 -23
-84 -94 116 -231 179 -388 179 -140 0 -234 -37 -336 -133 -105 -99 -154 -213
-154 -357 0 -138 39 -235 134 -337 99 -106 209 -153 356 -153 157 0 294 63
388 179 51 61 53 53 24 -79 -79 -353 -256 -676 -510 -928 -209 -208 -468 -366
-746 -455 -110 -35 -302 -77 -353 -77 -23 0 -20 4 28 32 149 85 251 263 249
433 -2 285 -251 514 -533 492 -186 -14 -358 -141 -427 -314 -20 -50 -24 -76
-24 -183 0 -123 1 -126 36 -200 44 -93 127 -185 206 -229 l58 -32 -65 7 c-82
8 -272 54 -370 89 -471 169 -870 538 -1074 994 -78 172 -140 399 -151 553 l-6
73 21 -49 c80 -189 256 -306 459 -306 110 0 196 25 280 81 293 195 293 623 0
818 -156 104 -378 110 -532 14 -88 -53 -168 -146 -207 -239 l-21 -49 6 71 c18
246 135 575 287 807 100 153 259 328 403 444 152 123 390 251 580 313 112 36
302 78 355 79 35 0 35 0 -23 -31z m352 -165 c96 -34 170 -137 178 -248 20
-249 -283 -400 -470 -235 -167 147 -114 423 93 488 73 23 125 21 199 -5z
m-1357 -1395 c95 -41 168 -152 168 -258 0 -207 -227 -348 -413 -256 -101 49
-157 140 -157 256 0 213 203 344 402 258z m2791 0 c93 -40 167 -154 167 -258
0 -155 -132 -284 -290 -283 -252 1 -378 305 -201 482 90 90 203 110 324 59z
m-1439 -1379 c117 -43 193 -161 183 -284 -17 -227 -264 -343 -453 -214 -108
74 -148 233 -89 355 66 136 218 196 359 143z"/>
<path d="M1989 2616 c-80 -28 -139 -67 -199 -132 -59 -63 -83 -104 -110 -183
-41 -123 -23 -292 43 -401 32 -53 113 -136 166 -169 157 -100 381 -96 540 10
293 195 293 623 0 818 -124 83 -302 106 -440 57z m282 -207 c95 -41 169 -154
169 -259 0 -156 -133 -285 -292 -283 -161 1 -281 123 -281 283 0 211 207 344
404 259z"/>
</g>
</svg>
