<svg id="Capa_1" enable-background="new 0 0 512 512" height="512" viewBox="0 0 512 512" width="512" xmlns="http://www.w3.org/2000/svg"><path d="m512 196c0-47.719-35.361-87.332-81.259-94.009.173-2.326.259-4.658.259-6.991 0-52.383-42.617-95-95-95-33.549 0-63.093 17.482-80 43.814-16.907-26.332-46.45-43.814-80-43.814-52.383 0-95 42.617-95 95 0 2.333.086 4.665.258 6.991-45.896 6.677-81.258 46.29-81.258 94.009 0 21.994 7.652 43.163 21.373 60-13.721 16.837-21.373 38.006-21.373 60 0 47.719 35.362 87.332 81.258 94.009-.172 2.326-.258 4.658-.258 6.991 0 52.383 42.617 95 95 95 33.55 0 63.093-17.482 80-43.814 16.907 26.332 46.451 43.814 80 43.814 52.383 0 95-42.617 95-95 0-2.333-.086-4.665-.259-6.991 45.898-6.677 81.259-46.29 81.259-94.009 0-21.994-7.651-43.163-21.372-60 13.721-16.837 21.372-38.006 21.372-60zm-336 286c-35.841 0-65-29.159-65-65 0-2.488.153-4.974.438-7.447 19.135-3.349 36.832-12.474 50.736-26.378 5.858-5.857 5.858-15.355 0-21.213-5.857-5.857-15.355-5.857-21.213 0-11.436 11.436-26.614 18.164-42.747 18.956-.028.001-.057.001-.085.002-1.151.054-2.174.08-3.129.08-35.841 0-65-29.159-65-65 0-18.629 8.032-36.397 22.036-48.751 3.228-2.848 5.077-6.944 5.077-11.249s-1.849-8.401-5.077-11.249c-14.004-12.354-22.036-30.122-22.036-48.751 0-35.841 29.159-65 65-65 .955 0 1.978.026 3.129.08.016.001.032-.001.048-.001 16.147.783 31.34 7.514 42.785 18.959 2.929 2.929 6.768 4.394 10.606 4.394s7.678-1.465 10.606-4.394c5.858-5.857 5.858-15.355 0-21.213-13.904-13.905-31.601-23.03-50.736-26.378-.285-2.473-.438-4.959-.438-7.447 0-35.841 29.159-65 65-65s65 29.159 65 65v322c0 35.841-29.159 65-65 65zm283.964-214.751c14.004 12.354 22.036 30.122 22.036 48.751 0 35.841-29.159 65-65 65-.955 0-1.979-.026-3.13-.08-4.806-.221-9.406 1.857-12.406 5.602-3.002 3.745-4.03 8.699-2.768 13.329 1.529 5.603 2.304 11.373 2.304 17.149 0 35.841-29.159 65-65 65s-65-29.159-65-65v-46h32.58c6.192 17.459 22.865 30 42.42 30 24.813 0 45-20.187 45-45s-20.187-45-45-45c-19.555 0-36.228 12.541-42.42 30h-32.58v-70h72.58c6.192 17.459 22.865 30 42.42 30 24.813 0 45-20.187 45-45s-20.187-45-45-45c-19.555 0-36.228 12.541-42.42 30h-72.58v-70h32.58c6.192 17.459 22.865 30 42.42 30 24.813 0 45-20.187 45-45s-20.187-45-45-45c-19.555 0-36.228 12.541-42.42 30h-32.58v-46c0-35.841 29.159-65 65-65s65 29.159 65 65c0 5.776-.775 11.546-2.304 17.149-1.263 4.63-.234 9.584 2.768 13.329 3.001 3.744 7.614 5.818 12.406 5.602 1.151-.054 2.175-.08 3.13-.08 35.841 0 65 29.159 65 65 0 18.629-8.032 36.397-22.036 48.751-3.228 2.848-5.077 6.944-5.077 11.249s1.849 8.401 5.077 11.249zm-128.964 88.751c0-8.271 6.729-15 15-15s15 6.729 15 15-6.729 15-15 15-15-6.729-15-15zm40-100c0-8.271 6.729-15 15-15s15 6.729 15 15-6.729 15-15 15-15-6.729-15-15zm-40-100c0-8.271 6.729-15 15-15s15 6.729 15 15-6.729 15-15 15-15-6.729-15-15z"/></svg>