<svg enable-background="new 0 0 32 32" height="32" viewBox="0 0 32 32" width="32" xmlns="http://www.w3.org/2000/svg"><g id="box"><path d="m0 0h32v32h-32z" fill="none"/></g><g id="_x31_"/><g id="_x32_"/><g id="_x33_"/><g id="_x34_"/><g id="_x35_"/><g id="_x36_"/><g id="_x37_"/><g id="_x38_"/><g id="_x39_"/><g id="_x31_0"/><g id="_x31_1"/><g id="_x31_2"/><g id="_x31_3"/><g id="_x31_4"/><g id="_x31_5"/><g id="_x31_6"/><g id="_x31_7"/><g id="_x31_8"/><g id="_x31_9"/><g id="_x32_0"/><g id="_x32_1"><g><path d="m7 17h-1c-.552 0-1-.447-1-1s.448-1 1-1h1c.552 0 1 .447 1 1s-.448 1-1 1z"/></g><g><path d="m6.615 7c-.552 0-1-.447-1-1 0-2.757 2.105-5 4.692-5 2.151 0 4.021 1.55 4.549 3.769.128.537-.204 1.076-.741 1.204-.541.128-1.077-.205-1.204-.741-.312-1.314-1.383-2.232-2.603-2.232-1.485 0-2.693 1.346-2.693 3 0 .553-.448 1-1 1z"/></g><g><path d="m10.308 31c-2.587 0-4.692-2.243-4.692-5 0-.553.448-1 1-1s1 .447 1 1c0 1.654 1.208 3 2.692 3s2.692-1.346 2.692-3c0-.553.448-1 1-1s1 .447 1 1c0 2.757-2.105 5-4.692 5z"/></g><g><path d="m6.615 27c-3.096 0-5.615-2.691-5.615-6s2.519-6 5.615-6c.552 0 1 .447 1 1s-.448 1-1 1c-1.993 0-3.615 1.794-3.615 4s1.622 4 3.615 4c.552 0 1 .447 1 1s-.448 1-1 1z"/></g><g><path d="m6.615 17c-3.096 0-5.615-2.691-5.615-6s2.519-6 5.615-6c.552 0 1 .447 1 1s-.448 1-1 1c-1.993 0-3.615 1.794-3.615 4s1.622 4 3.615 4c.552 0 1 .447 1 1s-.448 1-1 1z"/></g><g><path d="m17 23h-2c-1.103 0-2-.897-2-2v-4h6v4c0 1.103-.897 2-2 2zm-2-4v2h2.001l-.001-2z"/></g><g><path d="m19 19h-6v-2.077c-1.628-1.164-2.337-3.166-1.848-5.164.436-1.784 1.874-3.205 3.662-3.621 1.525-.357 3.09-.011 4.293.945 1.203.955 1.893 2.383 1.893 3.917 0 1.576-.729 3.025-2 3.98zm-4-2h2v-.097c0-.592.287-1.144.787-1.514.771-.572 1.213-1.443 1.213-2.389 0-.921-.414-1.777-1.137-2.352-.732-.581-1.655-.782-2.596-.563-1.044.243-1.918 1.106-2.173 2.148-.295 1.208.129 2.414 1.108 3.148.507.381.798.942.798 1.542z"/></g><g><path d="m26 17h-1c-.552 0-1-.447-1-1s.448-1 1-1h1c.552 0 1 .447 1 1s-.448 1-1 1z"/></g><g><path d="m25.385 7c-.552 0-1-.447-1-1 0-1.654-1.208-3-2.692-3-1.221 0-2.291.918-2.604 2.231-.127.536-.666.87-1.204.741-.537-.128-.869-.667-.741-1.204.527-2.218 2.398-3.768 4.548-3.768 2.587 0 4.692 2.243 4.692 5 .001.553-.447 1-.999 1z"/></g><g><path d="m21.692 31c-2.587 0-4.692-2.243-4.692-5 0-.553.448-1 1-1s1 .447 1 1c0 1.654 1.208 3 2.692 3s2.692-1.346 2.692-3c0-.553.448-1 1-1s1 .447 1 1c.001 2.757-2.104 5-4.692 5z"/></g><g><path d="m25.385 27c-.552 0-1-.447-1-1s.448-1 1-1c1.993 0 3.615-1.794 3.615-4s-1.622-4-3.615-4c-.552 0-1-.447-1-1s.448-1 1-1c3.096 0 5.615 2.691 5.615 6s-2.519 6-5.615 6z"/></g><g><path d="m25.385 17c-.552 0-1-.447-1-1s.448-1 1-1c1.993 0 3.615-1.794 3.615-4s-1.622-4-3.615-4c-.552 0-1-.447-1-1s.448-1 1-1c3.096 0 5.615 2.691 5.615 6s-2.519 6-5.615 6z"/></g></g><g id="_x32_2"/><g id="_x32_3"/><g id="_x32_4"/><g id="_x32_5"/></svg>