<svg id="Capa_1" enable-background="new 0 0 512 512" height="512" viewBox="0 0 512 512" width="512" xmlns="http://www.w3.org/2000/svg"><path d="m392 0h-272c-33.084 0-60 26.916-60 60v272c0 33.084 26.916 60 60 60h121v120h30v-120h121c33.084 0 60-26.916 60-60v-272c0-33.084-26.916-60-60-60zm30 332c0 16.542-13.458 30-30 30h-121v-30.831c67.958-7.491 121-65.248 121-135.169 0-74.991-61.01-136-136-136-74.991 0-136 61.009-136 136 0 69.921 53.042 127.678 121 135.169v30.831h-121c-16.542 0-30-13.458-30-30v-272c0-16.542 13.458-30 30-30h272c16.542 0 30 13.458 30 30zm-166-90c-25.364 0-46-20.636-46-46s20.636-46 46-46 46 20.636 46 46-20.636 46-46 46zm15 28.506c34.746-6.984 61-37.734 61-74.506 0-41.907-34.094-76-76-76-41.907 0-76 34.093-76 76 0 36.773 26.254 67.522 61 74.506v30.427c-51.37-7.309-91-51.577-91-104.934 0-58.449 47.551-106 106-106 58.448 0 106 47.551 106 106 0 53.357-39.63 97.625-91 104.934z"/></svg>