<svg enable-background="new 0 0 512 512" height="512" viewBox="0 0 512 512" width="512" xmlns="http://www.w3.org/2000/svg"><g id="_x34_8_x2C__location_x2C__mind_x2C__thought_x2C__user_x2C__human_brain"><g id="XMLID_350_"><g id="XMLID_351_"><path id="XMLID_326_" d="m336.636 204.448c-24.144-30.545-37.163-62.37-37.755-92.576-.442-22.52 7.668-43.944 22.883-60.744-24.692-13.519-52.222-20.459-80.024-20.114-89.811 1.132-162.876 75.145-162.876 164.986v20c0 2.007 1.474-2.632-37.306 85h52.306c2.761 0 5 2.238 5 5v62.5c0 17.921 14.58 32.5 32.5 32.5h32.5c2.761 0 5 2.238 5 5v35h180.561c2.309-46.348 11.813-92.464 28.348-137.47-19.1-1.512-36.804-6.647-50.758-14.856-39.395-23.172-36.318-63.984 9.621-84.226z"/><path id="XMLID_325_" d="m392.536 253.095c-1.726 1.218-4.035 1.222-5.767 0-10.95-7.731-28.669-23.385-43.492-40.598-38.16 15.533-46.44 46.826-11.193 67.559 31.663 18.624 83.482 18.62 115.138 0 35.42-20.835 26.805-52.091-11.193-67.559-14.918 17.323-32.657 32.948-43.493 40.598z"/><path id="XMLID_324_" d="m168.864 481h180v-17.719c0-4.095.063-8.189.176-12.281h-180.176z"/><path id="XMLID_352_" d="m389.653 31c-44.267 0-81.653 35.821-80.774 80.675 1.301 66.344 66.185 119.887 80.772 131.093 14.582-11.217 79.477-64.828 80.776-131.093.878-44.754-36.403-80.675-80.774-80.675zm0 119.744c-20.929 0-37.956-17.027-37.956-37.956s17.027-37.956 37.956-37.956 37.956 17.027 37.956 37.956-17.027 37.956-37.956 37.956z"/></g></g></g></svg>