<?xml version="1.0" encoding="UTF-8"?>
<svg xmlns="http://www.w3.org/2000/svg" id="Icons" viewBox="0 0 60 60" width="512" height="512"><path d="M55.958,23.413a1,1,0,0,1-.345-.986,6.276,6.276,0,0,0,.157-1.35,5.7,5.7,0,0,0-5.693-5.692,1.217,1.217,0,0,0-.235.009,1,1,0,0,1-1.1-1.348,5.212,5.212,0,0,0,.334-1.892,5.7,5.7,0,0,0-5.692-5.692,1.52,1.52,0,0,0-.243.009,1,1,0,0,1-1.105-.664A5.642,5.642,0,0,0,36.692,2,5.7,5.7,0,0,0,31,7.075v4.118a2.134,2.134,0,0,1-.889,1.729,2.013,2.013,0,0,1-1.834.284A4.09,4.09,0,0,0,24,14.353a3.972,3.972,0,0,0-.972,3.16,4.006,4.006,0,0,0,5.249,3.28,2,2,0,0,1,1.83.283A2.14,2.14,0,0,1,31,22.808V28h5.19a.126.126,0,0,0,.122-.081A5.946,5.946,0,0,1,36,26a6,6,0,0,1,11.965-.615,5.924,5.924,0,0,1-.277,2.531A.136.136,0,0,0,47.81,28H57.988c0-.077.012-.153.012-.23A5.6,5.6,0,0,0,55.958,23.413Z"/><path d="M2.012,28H12.19a2.141,2.141,0,0,1,1.733.887,2.011,2.011,0,0,1,.285,1.83A3.97,3.97,0,0,0,14,32a4,4,0,1,0,7.792-1.283,2.007,2.007,0,0,1,.287-1.827A2.14,2.14,0,0,1,23.81,28H29V22.808a.131.131,0,0,0-.081-.12,6,6,0,0,1-6.414-9.661,6.116,6.116,0,0,1,6.407-1.717h0A.121.121,0,0,0,29,11.193V7.075A5.7,5.7,0,0,0,23.308,2a5.642,5.642,0,0,0-5.345,3.807,1,1,0,0,1-1.105.664,1.52,1.52,0,0,0-.243-.009,5.7,5.7,0,0,0-5.692,5.692,5.212,5.212,0,0,0,.334,1.892,1,1,0,0,1-1.1,1.348,1.4,1.4,0,0,0-.235-.009A5.7,5.7,0,0,0,4.23,21.077a6.276,6.276,0,0,0,.157,1.35,1,1,0,0,1-.345.986A5.6,5.6,0,0,0,2,27.77C2,27.847,2.009,27.923,2.012,28Z"/><path d="M5.909,43.951a1,1,0,0,1,.573.865,6.815,6.815,0,0,0,6.068,6.453,1,1,0,0,1,.865.753A7.866,7.866,0,0,0,21.077,58C25.4,58,28.8,54.976,29,50.962V46.808a2.14,2.14,0,0,1,.89-1.732,2.009,2.009,0,0,1,1.831-.282,4.007,4.007,0,0,0,5.248-3.282A3.971,3.971,0,0,0,36,38.353a4.088,4.088,0,0,0-4.276-1.147,2.006,2.006,0,0,1-1.832-.284A2.134,2.134,0,0,1,29,35.193V30H23.81a.135.135,0,0,0-.122.085,5.936,5.936,0,0,1,.276,2.542,6,6,0,0,1-5.212,5.325A6.086,6.086,0,0,1,18,38a6.009,6.009,0,0,1-5.691-7.92A.128.128,0,0,0,12.19,30H2.453a5.387,5.387,0,0,0,1.28,1.833,1,1,0,0,1,.05,1.416A6.642,6.642,0,0,0,2,37.808,6.734,6.734,0,0,0,5.909,43.951Z"/><path d="M55.948,32.53a1,1,0,0,1,.319-.7A5.387,5.387,0,0,0,57.547,30H47.81a2.14,2.14,0,0,1-1.731-.89,2.007,2.007,0,0,1-.287-1.827,3.988,3.988,0,0,0,.184-1.7,4.044,4.044,0,0,0-3.468-3.556,4.006,4.006,0,0,0-4.3,5.246,2.016,2.016,0,0,1-.284,1.835A2.141,2.141,0,0,1,36.19,30H31v5.193a.13.13,0,0,0,.082.119,6.1,6.1,0,0,1,6.413,1.715,6,6,0,0,1-6.412,9.662.126.126,0,0,0-.083.119v4.154C31.2,54.976,34.6,58,38.923,58a7.866,7.866,0,0,0,7.662-5.978,1,1,0,0,1,.865-.753,6.815,6.815,0,0,0,6.068-6.453,1,1,0,0,1,.573-.865A6.734,6.734,0,0,0,58,37.808a6.642,6.642,0,0,0-1.783-4.559A1,1,0,0,1,55.948,32.53Z"/></svg>
