<svg width="1760" height="1760" xmlns="http://www.w3.org/2000/svg" xmlns:xlink="http://www.w3.org/1999/xlink" xml:space="preserve" overflow="hidden"><defs><clipPath id="clip0"><rect x="715" y="412" width="1760" height="1760"/></clipPath></defs><g clip-path="url(#clip0)" transform="translate(-715 -412)"><path d="M1595 412C1108.99 412 715 805.99 715 1292 715 1778.01 1108.99 2172 1595 2172 2081.01 2172 2475 1778.01 2475 1292 2474.45 806.219 2080.78 412.553 1595 412ZM2426.88 1292C2426.88 1388.25 2085.23 1495.5 1595 1495.5 1526 1495.5 1460.09 1493.31 1397.52 1489.4 1393.6 1426.82 1391.4 1360.9 1391.4 1291.9 1391.4 801.73 1498.75 460.125 1595 460.125 2054.22 460.648 2426.35 832.784 2426.88 1292ZM1504.25 465.13C1424.25 565.367 1372.79 795.515 1352.79 1049.51 1302.18 1053.44 1252.71 1058.57 1205.67 1064.91 1192.5 1066.7 1183.28 1078.83 1185.07 1091.99 1186.69 1103.89 1196.84 1112.78 1208.85 1112.81 1209.93 1112.81 1211.01 1112.74 1212.08 1112.6 1256.08 1106.68 1302.21 1101.84 1349.44 1098.04 1345.44 1162.2 1343.38 1227.39 1343.38 1291.92 1343.38 1356.45 1345.44 1421.8 1349.44 1486 994.427 1457.78 763.125 1371.17 763.125 1292 763.659 867.902 1082.74 511.906 1504.25 465.13ZM768.171 1382.75C868.436 1462.78 1098.68 1514.24 1352.72 1534.22 1372.7 1788.28 1424.22 2018.51 1504.2 2118.77 1116.94 2075.7 811.247 1770 768.171 1382.75ZM1595 2123.88C1515.79 2123.88 1429.19 1892.57 1400.93 1537.66 1465.13 1541.67 1530.36 1543.72 1595 1543.72 1659.64 1543.72 1724.77 1541.67 1788.88 1537.67 1784.9 1586.97 1779.8 1635.05 1773.53 1680.67 1771.72 1693.83 1780.92 1705.96 1794.07 1707.78 1794.1 1707.78 1794.13 1707.78 1794.16 1707.79 1795.25 1707.94 1796.36 1708.01 1797.47 1708.01 1809.48 1708 1819.64 1699.13 1821.27 1687.23 1827.98 1638.45 1833.38 1587.01 1837.5 1534.25 2091.46 1514.26 2321.61 1462.75 2421.87 1382.79 2375.08 1804.28 2019.08 2123.34 1595 2123.88Z" fill-rule="evenodd"/><path d="M888.012 1187.97C890.995 1187.97 893.95 1187.4 896.728 1186.31 947.015 1167.29 998.645 1152.08 1051.19 1140.82 1064.14 1137.92 1072.3 1124.99 1069.42 1111.95 1066.54 1098.9 1053.71 1090.68 1040.76 1093.58 985.831 1105.4 931.861 1121.33 879.296 1141.25 866.932 1146.11 860.824 1160.15 865.654 1172.6 869.251 1181.88 878.124 1187.99 888.012 1188Z" fill-rule="evenodd"/><path d="M2187.03 1152.61C2223.12 1161.83 2258.65 1173.13 2293.45 1186.45 2305.9 1191.15 2319.78 1184.82 2324.45 1172.32 2329.06 1160.01 2323.04 1146.26 2310.89 1141.36 2274.34 1127.35 2237.03 1115.47 2199.12 1105.78 2186.24 1102.43 2173.11 1110.19 2169.78 1123.12 2166.44 1136.05 2174.15 1149.26 2187.03 1152.61Z" fill-rule="evenodd"/><path d="M1514 1065.03C1514.23 1078.17 1524.9 1088.71 1537.99 1088.72L1538.42 1088.72C1592.25 1087.78 1647.82 1088.19 1701.78 1090L1702.6 1090C1715.86 1090.21 1726.78 1079.6 1727 1066.29 1727.21 1052.97 1716.64 1042.01 1703.39 1041.79 1648.63 1039.96 1592.29 1039.54 1537.59 1040.49 1524.34 1040.72 1513.78 1051.69 1514 1065 1514 1065.01 1514 1065.02 1514 1065.03Z" fill-rule="evenodd"/><path d="M1865.16 1099.96C1921.48 1104.99 1976.02 1111.63 2027.19 1119.7 2028.43 1119.9 2029.7 1120 2030.96 1120 2044.24 1120 2055 1109.24 2055 1095.98 2055 1084.15 2046.37 1074.08 2034.67 1072.25 1982.47 1064.02 1926.83 1057.24 1869.4 1052.12 1856.19 1050.82 1844.42 1060.46 1843.12 1073.66 1841.81 1086.86 1851.47 1098.62 1864.68 1099.92 1864.83 1099.94 1864.98 1099.95 1865.13 1099.96Z" fill-rule="evenodd"/><path d="M1797.04 1190.83C1798.1 1223.98 1798.64 1258 1798.64 1291.97 1798.64 1313.04 1798.44 1333.88 1798.04 1354.48 1797.77 1367.76 1808.38 1378.74 1821.73 1379L1822.23 1379C1835.39 1378.99 1846.13 1368.51 1846.39 1355.42 1846.79 1334.46 1846.99 1313.31 1847 1291.97 1847 1257.51 1846.46 1222.96 1845.37 1189.29 1844.94 1176.01 1833.77 1165.59 1820.42 1166.01 1807.06 1166.44 1796.59 1177.55 1797.01 1190.83Z" fill-rule="evenodd"/><path d="M1774.09 1822.6C1761.02 1819.67 1748.05 1827.81 1745.09 1840.76 1733.99 1891.5 1719.18 1941.37 1700.75 1989.96 1695.76 2002.3 1701.79 2016.31 1714.22 2021.26 1726.64 2026.21 1740.76 2020.23 1745.75 2007.89 1745.82 2007.73 1745.88 2007.56 1745.95 2007.4 1765.25 1956.58 1780.77 1904.43 1792.4 1851.37 1795.35 1838.4 1787.15 1825.53 1774.09 1822.6Z" fill-rule="evenodd"/><path d="M1762.39 828.426C1768.98 866.847 1774.79 907.663 1779.65 949.718 1781.05 961.846 1791.17 970.992 1803.21 971 1804.14 971 1805.08 970.945 1806.01 970.835 1819.03 969.284 1828.36 957.317 1826.84 944.102 1821.86 901.166 1815.98 859.468 1809.19 820.208 1807.08 807.078 1794.87 798.173 1781.92 800.319 1768.98 802.465 1760.2 814.849 1762.31 827.979 1762.34 828.143 1762.37 828.305 1762.4 828.468Z" fill-rule="evenodd"/><path d="M1736.63 709.317C1740.19 722.156 1753.48 729.677 1766.32 726.117 1778.73 722.675 1786.25 710.095 1783.4 697.537 1773.28 656.416 1760.65 615.954 1745.58 576.376 1740.76 563.965 1726.78 557.819 1714.37 562.647 1701.97 567.475 1695.82 581.449 1700.65 593.86 1714.99 631.574 1727.01 670.132 1736.63 709.317Z" fill-rule="evenodd"/><path d="M1595.5 561.5C1999.22 561.5 2326.5 876.468 2326.5 1265 2326.5 1653.53 1999.22 1968.5 1595.5 1968.5 1191.78 1968.5 864.5 1653.53 864.5 1265 864.5 876.468 1191.78 561.5 1595.5 561.5Z" stroke="#042433" stroke-width="6.875" stroke-miterlimit="8" fill="#BFBFBF" fill-rule="evenodd" fill-opacity="0.568627"/></g></svg>