<?xml version="1.0" encoding="UTF-8" standalone="no"?>
<svg
   height="24px"
   viewBox="0 -960 960 960"
   width="24px"
   fill="#e8eaed"
   version="1.1"
   id="svg1"
   sodipodi:docname="split_screen_vertical_add_hflipped_outlined.svg"
   inkscape:version="1.4 (86a8ad7, 2024-10-11)"
   xmlns:inkscape="http://www.inkscape.org/namespaces/inkscape"
   xmlns:sodipodi="http://sodipodi.sourceforge.net/DTD/sodipodi-0.dtd"
   xmlns="http://www.w3.org/2000/svg"
   xmlns:svg="http://www.w3.org/2000/svg">
  <defs
     id="defs1" />
  <sodipodi:namedview
     id="namedview1"
     pagecolor="#ffffff"
     bordercolor="#000000"
     borderopacity="0.25"
     inkscape:showpageshadow="2"
     inkscape:pageopacity="0.0"
     inkscape:pagecheckerboard="0"
     inkscape:deskcolor="#d1d1d1"
     inkscape:zoom="50.541667"
     inkscape:cx="12.009893"
     inkscape:cy="9.4476505"
     inkscape:window-width="2560"
     inkscape:window-height="1494"
     inkscape:window-x="-11"
     inkscape:window-y="-11"
     inkscape:window-maximized="1"
     inkscape:current-layer="svg1" />
  <path
     d="m 280,-760 h 161 -5 4 z m 240,0 q 0,-33 -23.5,-56.5 Q 473,-840 440,-840 H 280 q -33,0 -56.5,23.5 Q 200,-793 200,-760 v 400 h 80 v -400 h 160 v 640 q 33,0 56.5,-23.5 Q 520,-167 520,-200 Z m 320,640 q 33,0 56.5,-23.5 Q 920,-167 920,-200 v -560 q 0,-33 -23.5,-56.5 Q 873,-840 840,-840 H 680 q -33,0 -56.5,23.5 Q 600,-793 600,-760 v 560 q 0,33 23.5,56.5 Q 647,-120 680,-120 Z M 680,-760 h 160 v 560 H 680 Z m 0,0 H 840 Z M 280,-40 v -80 h 80 v -80 h -80 v -80 h -80 v 80 h -80 v 80 h 80 v 80 z"
     id="path1" />
</svg>
