<svg width="1084" height="1084" xmlns="http://www.w3.org/2000/svg" xmlns:xlink="http://www.w3.org/1999/xlink" xml:space="preserve" overflow="hidden"><g transform="translate(-1346 -562)"><path d="M1807.88 1361.51C1749.54 1407.55 1663.75 1396.47 1616.62 1336.78 1574.02 1282.81 1577.02 1205.6 1623.56 1157.21 1637.16 1142.66 1660.27 1142.42 1674.64 1156.21 1689.01 1170.04 1689.44 1192.91 1675.63 1207.26 1653.97 1229.79 1653 1266.23 1673.34 1292.01 1695.77 1320.42 1736.03 1326.16 1763.11 1304.79 1778.76 1292.43 1801.48 1295.08 1813.85 1310.76 1826.23 1326.44 1823.54 1349.15 1807.88 1361.51Z" fill-rule="evenodd"/><path d="M1607.83 978.851C1606.91 977.517 1606.04 976.092 1605.28 974.554 1574.71 914.779 1594.21 840.015 1650.68 800.658 1713.04 757.189 1798.4 771.417 1840.9 832.388 1852.3 848.749 1848.31 871.263 1831.92 882.688 1815.53 894.113 1793.02 890.07 1781.62 873.708 1761.89 845.401 1721.7 839.238 1692 859.939 1665.03 878.74 1655.4 913.899 1669.61 941.739 1678.69 959.502 1671.66 981.267 1653.88 990.315 1637.62 998.65 1618 993.434 1607.83 978.851Z" fill-rule="evenodd"/><path d="M1986.47 1360.33C1969.24 1350.28 1963.4 1328.18 1973.47 1310.92 1983.53 1293.66 2005.65 1287.86 2022.88 1297.91 2052.68 1315.3 2091.74 1303.99 2109.98 1272.72 2126.53 1244.35 2120.47 1208.4 2095.87 1189.12 2080.17 1176.82 2077.39 1154.12 2089.72 1138.43 2102.02 1122.72 2124.85 1119.73 2140.44 1132.29 2193.32 1173.72 2207.04 1249.73 2172.4 1309.12 2134.08 1374.82 2050.67 1397.78 1986.47 1360.33Z" fill-rule="evenodd"/><path d="M2116.64 1049.92C2100.17 1056.62 2080.91 1050.31 2071.77 1034.48 2061.81 1017.2 2067.76 995.115 2085.01 985.168 2112.08 969.545 2123.15 934.811 2110.75 904.359 2097.1 870.828 2060.03 854.124 2028.07 867.133 2009.6 874.652 1988.52 865.796 1980.99 847.29 1973.45 828.785 1982.36 807.724 2000.83 800.204 2069.67 772.185 2149.02 806.707 2177.68 877.116 2203.61 940.831 2179.28 1014.16 2121.12 1047.71 2119.64 1048.58 2118.14 1049.31 2116.64 1049.92Z" fill-rule="evenodd"/><path d="M1888 1646C1589.14 1646 1346 1402.86 1346 1104 1346 805.141 1589.14 562 1888 562 2186.86 562 2430 805.141 2430 1104 2430 1402.86 2186.86 1646 1888 1646ZM1888 634.267C1629 634.267 1418.27 844.996 1418.27 1104 1418.27 1363 1629 1573.73 1888 1573.73 2147 1573.73 2357.73 1363 2357.73 1104 2357.73 844.996 2147 634.267 1888 634.267Z" fill-rule="evenodd"/></g></svg>