<svg width="1157" height="1156" xmlns="http://www.w3.org/2000/svg" xmlns:xlink="http://www.w3.org/1999/xlink" xml:space="preserve" overflow="hidden"><g transform="translate(-1309 -526)"><path d="M1878 1652C1579.14 1652 1336 1408.86 1336 1110 1336 811.141 1579.14 568 1878 568 2176.86 568 2420 811.141 2420 1110 2420 1408.86 2176.86 1652 1878 1652ZM1878 640.267C1619 640.267 1408.27 850.996 1408.27 1110 1408.27 1369 1619 1579.73 1878 1579.73 2137 1579.73 2347.73 1369 2347.73 1110 2347.73 850.996 2137 640.267 1878 640.267Z" fill-rule="evenodd"/><path d="M1713 868 2051.93 868" stroke="#000000" stroke-width="32.0833" stroke-miterlimit="8" fill="none" fill-rule="evenodd"/><path d="M1509 1070 2216.15 1070" stroke="#000000" stroke-width="32.0833" stroke-miterlimit="8" fill="none" fill-rule="evenodd"/><path d="M1666 1264 2101.9 1264" stroke="#000000" stroke-width="32.0833" stroke-miterlimit="8" fill="none" fill-rule="evenodd"/></g></svg>