<?xml version="1.0" standalone="no"?>
<!DOCTYPE svg PUBLIC "-//W3C//DTD SVG 20010904//EN"
 "http://www.w3.org/TR/2001/REC-SVG-20010904/DTD/svg10.dtd">
<svg version="1.0" xmlns="http://www.w3.org/2000/svg"
 width="200.000000pt" height="200.000000pt" viewBox="0 0 200.000000 200.000000"
 preserveAspectRatio="xMidYMid meet">

<g transform="translate(0.000000,200.000000) scale(0.100000,-0.100000)"
fill="#000000" stroke="none">
<path d="M0 1800 l0 -200 200 0 200 0 0 200 0 200 -200 0 -200 0 0 -200z m300
0 l0 -100 -100 0 -100 0 0 100 0 100 100 0 100 0 0 -100z"/>
<path d="M500 1950 l0 -50 350 0 350 0 0 50 0 50 -350 0 -350 0 0 -50z"/>
<path d="M500 1800 l0 -50 350 0 350 0 0 50 0 50 -350 0 -350 0 0 -50z"/>
<path d="M1490 1615 l-115 -115 118 -117 117 -118 37 38 37 37 -54 55 c-30 30
-50 55 -44 55 5 0 35 -7 67 -15 131 -34 211 -126 240 -277 l11 -58 48 0 c45 0
48 2 48 26 0 14 -7 54 -16 88 -46 179 -170 297 -344 328 l-62 10 51 52 c28 28
51 56 51 62 0 13 -53 64 -66 64 -5 0 -61 -52 -124 -115z"/>
<path d="M500 1650 l0 -50 350 0 350 0 0 50 0 50 -350 0 -350 0 0 -50z"/>
<path d="M0 1300 l0 -200 200 0 200 0 0 200 0 200 -200 0 -200 0 0 -200z m300
0 l0 -100 -100 0 -100 0 0 100 0 100 100 0 100 0 0 -100z"/>
<path d="M500 1450 l0 -50 350 0 350 0 0 50 0 50 -350 0 -350 0 0 -50z"/>
<path d="M500 1300 l0 -50 350 0 350 0 0 50 0 50 -350 0 -350 0 0 -50z"/>
<path d="M500 1150 l0 -50 350 0 350 0 0 50 0 50 -350 0 -350 0 0 -50z"/>
<path d="M300 872 c0 -47 29 -142 62 -204 58 -110 162 -183 296 -209 l63 -12
-50 -51 c-28 -29 -51 -56 -51 -62 0 -13 53 -64 66 -64 5 0 61 52 124 115 l115
115 -115 115 c-63 63 -119 115 -124 115 -13 0 -66 -51 -66 -64 0 -6 23 -34 52
-63 l52 -52 -40 5 c-21 3 -67 19 -101 35 -95 46 -153 127 -175 248 l-12 61
-48 0 c-46 0 -48 -1 -48 -28z"/>
<path d="M1100 700 l0 -200 200 0 200 0 0 200 0 200 -200 0 -200 0 0 -200z
m300 0 l0 -100 -100 0 -100 0 0 100 0 100 100 0 100 0 0 -100z"/>
<path d="M1600 700 l0 -200 200 0 200 0 0 200 0 200 -200 0 -200 0 0 -200z
m300 0 l0 -100 -100 0 -100 0 0 100 0 100 100 0 100 0 0 -100z"/>
<path d="M1100 200 l0 -200 200 0 200 0 0 200 0 200 -200 0 -200 0 0 -200z
m300 0 l0 -100 -100 0 -100 0 0 100 0 100 100 0 100 0 0 -100z"/>
<path d="M1600 200 l0 -200 200 0 200 0 0 200 0 200 -200 0 -200 0 0 -200z
m300 0 l0 -100 -100 0 -100 0 0 100 0 100 100 0 100 0 0 -100z"/>
</g>
</svg>
